<?xml version="1.0"?>
<svg xmlns="http://www.w3.org/2000/svg" version="1.1" width="600px" height="600px" viewBox="0 0 200 200" style="overflow:hidden!important;">
  <defs id="SvgjsDefs14905">
    <radialGradient id="SvgjsRadialGradient14971" cx="100" cy="114" r="41" gradientUnits="userSpaceOnUse" class="svga-on-canvas-facehighlight-gradient-single-0">
      <stop id="SvgjsStop14972" stop-opacity="0.5" stop-color="#f0beb7" offset="0"/>
      <stop id="SvgjsStop14973" stop-opacity="0" stop-color="#e19e95" offset="0.9"/>
    </radialGradient>
    <radialGradient id="SvgjsRadialGradient14975" cx="100" cy="54" r="37" gradientUnits="userSpaceOnUse" class="svga-on-canvas-facehighlight-gradient-single-1">
      <stop id="SvgjsStop14976" stop-opacity="0.5" stop-color="#f0beb7" offset="0"/>
      <stop id="SvgjsStop14977" stop-opacity="0" stop-color="#e19e95" offset="0.9"/>
    </radialGradient>
    <radialGradient id="SvgjsRadialGradient15060" cx="-568.659" cy="-521.042" r="59.751" gradientTransform="matrix(0.096 -0.0248 0.0245 0.0961 141.2814 119.9893)" gradientUnits="userSpaceOnUse" class="svga-on-canvas-eyesiris-gradient-left-1">
      <stop id="SvgjsStop15061" stop-opacity="1" stop-color="#ffffff" offset="0"/>
      <stop id="SvgjsStop15062" stop-opacity="0" stop-color="#ffffff" offset="1"/>
    </radialGradient>
    <radialGradient id="SvgjsRadialGradient15064" cx="-582.838" cy="-519.099" r="59.745" gradientTransform="matrix(0.0991 8.856319e-004 -0.0011 0.0991 131.1134 135.9855)" gradientUnits="userSpaceOnUse" class="svga-on-canvas-eyesiris-gradient-left-2">
      <stop id="SvgjsStop15065" stop-opacity="1" stop-color="#ffffff" offset="0"/>
      <stop id="SvgjsStop15066" stop-opacity="0" stop-color="#ffffff" offset="1"/>
    </radialGradient>
    <linearGradient id="SvgjsLinearGradient15070" x1="122.67" y1="88.268" x2="123.606" y2="87.152" gradientTransform="matrix(1 0 0 1 -52 0)" gradientUnits="userSpaceOnUse" class="svga-on-canvas-eyesiris-gradient-left-5">
      <stop id="SvgjsStop15071" stop-opacity="1" stop-color="#ffffff" offset="0"/>
      <stop id="SvgjsStop15072" stop-opacity="0" stop-color="#ffffff" offset="1"/>
    </linearGradient>
    <linearGradient id="SvgjsLinearGradient15074" x1="127.212" y1="82.296" x2="126.463" y2="83.189" gradientTransform="matrix(1 0 0 1 -52 0)" gradientUnits="userSpaceOnUse" class="svga-on-canvas-eyesiris-gradient-left-6">
      <stop id="SvgjsStop15075" stop-opacity="1" stop-color="#ffffff" offset="0"/>
      <stop id="SvgjsStop15076" stop-opacity="0" stop-color="#ffffff" offset="1"/>
    </linearGradient>
    <linearGradient id="SvgjsLinearGradient15078" x1="129.636" y1="79.822" x2="127.91" y2="81.879" gradientTransform="matrix(1 0 0 1 -52 0)" gradientUnits="userSpaceOnUse" class="svga-on-canvas-eyesiris-gradient-left-7">
      <stop id="SvgjsStop15079" stop-opacity="1" stop-color="#ffffff" offset="0"/>
      <stop id="SvgjsStop15080" stop-opacity="0" stop-color="#ffffff" offset="1"/>
    </linearGradient>
    <radialGradient id="SvgjsRadialGradient15083" cx="-568.654" cy="-521.042" r="59.752" gradientTransform="matrix(0.096 -0.0248 0.0245 0.0961 193.2804 119.9894)" gradientUnits="userSpaceOnUse" class="svga-on-canvas-eyesiris-gradient-right-1">
      <stop id="SvgjsStop15084" stop-opacity="1" stop-color="#ffffff" offset="0"/>
      <stop id="SvgjsStop15085" stop-opacity="0" stop-color="#ffffff" offset="1"/>
    </radialGradient>
    <radialGradient id="SvgjsRadialGradient15087" cx="-582.833" cy="-519.102" r="59.747" gradientTransform="matrix(0.0991 8.856319e-004 -0.0011 0.0991 183.1126 135.9856)" gradientUnits="userSpaceOnUse" class="svga-on-canvas-eyesiris-gradient-right-2">
      <stop id="SvgjsStop15088" stop-opacity="1" stop-color="#ffffff" offset="0"/>
      <stop id="SvgjsStop15089" stop-opacity="0" stop-color="#ffffff" offset="1"/>
    </radialGradient>
    <linearGradient id="SvgjsLinearGradient15093" x1="122.67" y1="88.268" x2="123.606" y2="87.152" gradientUnits="userSpaceOnUse" class="svga-on-canvas-eyesiris-gradient-right-5">
      <stop id="SvgjsStop15094" stop-opacity="1" stop-color="#ffffff" offset="0"/>
      <stop id="SvgjsStop15095" stop-opacity="0" stop-color="#ffffff" offset="1"/>
    </linearGradient>
    <linearGradient id="SvgjsLinearGradient15097" x1="127.212" y1="82.296" x2="126.463" y2="83.189" gradientUnits="userSpaceOnUse" class="svga-on-canvas-eyesiris-gradient-right-6">
      <stop id="SvgjsStop15098" stop-opacity="1" stop-color="#ffffff" offset="0"/>
      <stop id="SvgjsStop15099" stop-opacity="0" stop-color="#ffffff" offset="1"/>
    </linearGradient>
    <linearGradient id="SvgjsLinearGradient15101" x1="129.636" y1="79.822" x2="127.91" y2="81.879" gradientUnits="userSpaceOnUse" class="svga-on-canvas-eyesiris-gradient-right-7">
      <stop id="SvgjsStop15102" stop-opacity="1" stop-color="#ffffff" offset="0"/>
      <stop id="SvgjsStop15103" stop-opacity="0" stop-color="#ffffff" offset="1"/>
    </linearGradient>
    <linearGradient id="SvgjsLinearGradient15237" x1="100" y1="144" x2="100" y2="141" gradientUnits="userSpaceOnUse" class="svga-on-canvas-mouth-gradient-single-0">
      <stop id="SvgjsStop15238" stop-opacity="1" stop-color="#d98f85" offset="0.1"/>
      <stop id="SvgjsStop15239" stop-opacity="1" stop-color="#d28176" offset="1"/>
    </linearGradient>
    <linearGradient id="SvgjsLinearGradient15270" x1="100" y1="171" x2="100" y2="128" gradientUnits="userSpaceOnUse" class="svga-on-canvas-chinshadow-gradient-single-0">
      <stop id="SvgjsStop15271" stop-opacity="0.8" stop-color="#d28176" offset="0"/>
      <stop id="SvgjsStop15272" stop-opacity="1" stop-color="#b34e41" offset="0.7"/>
    </linearGradient>
    <radialGradient id="SvgjsRadialGradient15296" cx="125.903" cy="85.096" r="13.25" gradientTransform="matrix(-1.0996 0.0423 0.0635 0.9207 206.5488 0.5932)" gradientUnits="userSpaceOnUse" class="svga-on-canvas-eyesback-gradient-left-0">
      <stop id="SvgjsStop15297" stop-opacity="1" stop-color="#ffffff" offset="0"/>
      <stop id="SvgjsStop15298" stop-opacity="1" stop-color="#fdfefe" offset="0.544"/>
      <stop id="SvgjsStop15299" stop-opacity="1" stop-color="#f6f8f9" offset="0.74"/>
      <stop id="SvgjsStop15300" stop-opacity="1" stop-color="#eaeff2" offset="0.879"/>
      <stop id="SvgjsStop15301" stop-opacity="1" stop-color="#d9e3e8" offset="0.992"/>
      <stop id="SvgjsStop15302" stop-opacity="1" stop-color="#d8e2e7" offset="1"/>
    </radialGradient>
    <radialGradient id="SvgjsRadialGradient15304" cx="125.541" cy="85.113" r="13.249" gradientTransform="matrix(1.0996 0.0423 -0.0635 0.9207 -6.5488 0.5932)" gradientUnits="userSpaceOnUse" class="svga-on-canvas-eyesback-gradient-right-0">
      <stop id="SvgjsStop15305" stop-opacity="1" stop-color="#ffffff" offset="0"/>
      <stop id="SvgjsStop15306" stop-opacity="1" stop-color="#fdfefe" offset="0.544"/>
      <stop id="SvgjsStop15307" stop-opacity="1" stop-color="#f6f8f9" offset="0.74"/>
      <stop id="SvgjsStop15308" stop-opacity="1" stop-color="#eaeff2" offset="0.879"/>
      <stop id="SvgjsStop15309" stop-opacity="1" stop-color="#d9e3e8" offset="0.992"/>
      <stop id="SvgjsStop15310" stop-opacity="1" stop-color="#d8e2e7" offset="1"/>
    </radialGradient>
    <radialGradient id="SvgjsRadialGradient15312" cx="125.903" cy="85.096" r="13.25" gradientTransform="matrix(-1.0996 0.0423 0.0635 0.9207 206.5488 0.5932)" gradientUnits="userSpaceOnUse" class="svga-on-canvas-eyesfront-gradient-left-0">
      <stop id="SvgjsStop15313" stop-opacity="1" stop-color="#ffffff" offset="0"/>
      <stop id="SvgjsStop15314" stop-opacity="1" stop-color="#fdfefe" offset="0.544"/>
      <stop id="SvgjsStop15315" stop-opacity="1" stop-color="#f6f8f9" offset="0.74"/>
      <stop id="SvgjsStop15316" stop-opacity="1" stop-color="#eaeff2" offset="0.879"/>
      <stop id="SvgjsStop15317" stop-opacity="1" stop-color="#d9e3e8" offset="0.992"/>
      <stop id="SvgjsStop15318" stop-opacity="1" stop-color="#d8e2e7" offset="1"/>
    </radialGradient>
    <radialGradient id="SvgjsRadialGradient15322" cx="123.371" cy="81.442" fx="136.805" fy="80.36" r="17.038" gradientTransform="matrix(0.9884 0.1367 0.1336 -0.7354 -56.0677 125.3)" gradientUnits="userSpaceOnUse" class="svga-on-canvas-eyesfront-gradient-left-3">
      <stop id="SvgjsStop15323" stop-opacity="1" stop-color="#d28176" offset="0"/>
      <stop id="SvgjsStop15324" stop-opacity="0.3" stop-color="#d28176" offset="0.7"/>
      <stop id="SvgjsStop15325" stop-opacity="0" stop-color="#e19e95" offset="1"/>
    </radialGradient>
    <radialGradient id="SvgjsRadialGradient15327" cx="78.965" cy="81.143" r="26.237" gradientTransform="matrix(0.7183 -0.06 0.0803 0.6143 8.7915 49.2595)" gradientUnits="userSpaceOnUse" class="svga-on-canvas-eyesfront-gradient-left-4">
      <stop id="SvgjsStop15328" stop-opacity="0" stop-color="#000000" offset="0.95"/>
      <stop id="SvgjsStop15329" stop-opacity="0.2" stop-color="#000000" offset="1"/>
    </radialGradient>
    <radialGradient id="SvgjsRadialGradient15333" cx="125.541" cy="85.113" r="13.249" gradientTransform="matrix(1.0996 0.0423 -0.0635 0.9207 -6.5488 0.5932)" gradientUnits="userSpaceOnUse" class="svga-on-canvas-eyesfront-gradient-right-0">
      <stop id="SvgjsStop15334" stop-opacity="1" stop-color="#ffffff" offset="0"/>
      <stop id="SvgjsStop15335" stop-opacity="1" stop-color="#fdfefe" offset="0.544"/>
      <stop id="SvgjsStop15336" stop-opacity="1" stop-color="#f6f8f9" offset="0.74"/>
      <stop id="SvgjsStop15337" stop-opacity="1" stop-color="#eaeff2" offset="0.879"/>
      <stop id="SvgjsStop15338" stop-opacity="1" stop-color="#d9e3e8" offset="0.992"/>
      <stop id="SvgjsStop15339" stop-opacity="1" stop-color="#d8e2e7" offset="1"/>
    </radialGradient>
    <radialGradient id="SvgjsRadialGradient15343" cx="122.972" cy="81.425" fx="136.406" fy="80.344" r="17.037" gradientTransform="matrix(-0.9884 0.1367 -0.1336 -0.7354 255.271 125.3424)" gradientUnits="userSpaceOnUse" class="svga-on-canvas-eyesfront-gradient-right-3">
      <stop id="SvgjsStop15344" stop-opacity="1" stop-color="#d28176" offset="0"/>
      <stop id="SvgjsStop15345" stop-opacity="0.3" stop-color="#d28176" offset="0.7"/>
      <stop id="SvgjsStop15346" stop-opacity="0" stop-color="#e19e95" offset="1"/>
    </radialGradient>
    <radialGradient id="SvgjsRadialGradient15348" cx="79.515" cy="81.186" r="26.237" gradientTransform="matrix(-0.7183 -0.06 -0.0803 0.6143 191.2076 49.2665)" gradientUnits="userSpaceOnUse" class="svga-on-canvas-eyesfront-gradient-right-4">
      <stop id="SvgjsStop15349" stop-opacity="0" stop-color="#000000" offset="0.95"/>
      <stop id="SvgjsStop15350" stop-opacity="0.2" stop-color="#000000" offset="1"/>
    </radialGradient>
  </defs>
  <g id="svga-group-wrapper">
    <g id="svga-group-humanwrap-move" transform="matrix(1,0,0,1,0,0)">
      <g id="svga-group-humanwrap" transform="matrix(1,0,0,1,0,0)">
        <g id="svga-group-hair-back-move" transform="matrix(1,0,0,1,0,0)">
          <g id="svga-group-hair-back" transform="matrix(1,0,0,1,0,0)">
            <path id="SvgjsPath15284" d="M155.728 11.564H44.272C28.491 30.71 21.813 58.319 32.461 90.745c8.949 28.091 13.512 36.882 21.14 58.24 0 0 0.003-4.164-0.1-6.51 3.068 7.797 1.906 5.192 4.189 9.279 0.064-3.704-0.192-7.47-0.55-11.13 2.294 9.156 3.72 11.162 6.37 16.48 0.481-3.005 0.55-5.61 0.55-8.3 0.006 0.022 5.33 16.002 5.33 16.02 0.26 0.771 0.51 1.5 0.73 2.15 0.284-3.106 0.558-7.202 0.773-11.023 0.698 2.131 1.545 4.613 2.445 7.111 0.388 2.607 0.785 5.354 1.151 8.021 0.15-1.35 50.867-1.35 51.018 0 0.366-2.668 0.764-5.415 1.151-8.023 0.9-2.498 1.747-4.979 2.445-7.109 0.216 3.821 0.489 7.917 0.773 11.023 0.221-0.65 0.471-1.38 0.73-2.15 0-0.018 5.324-15.997 5.33-16.02 0 2.689 0.068 5.295 0.55 8.3 2.65-5.318 4.076-7.324 6.37-16.48 -0.357 3.66-0.614 7.426-0.55 11.13 2.283-4.087 1.121-1.482 4.189-9.279 -0.103 2.346-0.1 6.51-0.1 6.51 7.628-21.358 12.19-30.149 21.14-58.24C178.187 58.319 171.509 30.71 155.728 11.564z" fill="#f0d8d8" stroke-width="none" opacity="1" stroke="none"/>
            <path id="SvgjsPath15285" d="M155.731 11.562l1.149 5.18c13.415 18.712 18.158 44.437 8.958 73.864 -7.896 26.509-10.606 31.566-18.6 55.41 0.228-8.06-0.251-4.342 3.07-15.99 5.598-19.239 8.217-21.629 8.96-32.09 -1.767 11.506-7.022 17.952-10.37 31.68 -0.112 0.387-1.438 5.071-1.58 5.44 0 0.564-3.993 12.566-4.45 13.58 2.057-30.407 12.97-43.777 18.92-67.34 3.275-14.069 1.713-20.565-0.21-34.17 -0.978-6.889-2.307-14.719-5.38-17.19 3.303 3.303 4.087 11.762 4.66 17.22 0.404 3.898 2.475 15.697 0.93 26.87 -3.525 20.76-15.2 39.243-17.79 57.66 0 0 0.01 0.01 0 0.02 -2.935 11.237-3.169 13.813-7.04 23.021 -0.176-4.356-0.183-7.088 0.031-10.836 5.971-15.562 4.394-10.082 7.99-29.964 -0.22 0.598-3.94 11.747-7.424 22.354 0.236-2.84 0.535-6.295 0.902-10.704 0 0 0 0.01-0.01 0.03 -3.081 20.755-1.168 10.467-6.479 28.02 -1.796-14.726 2.294-35.978 2.71-39.279 -3.055 12.144-4.802 21.952-4.28 33.93 -0.307 0.995-0.52 1.694-0.678 2.22 -0.717-11.735-0.791-13.635-0.795-13.939 -0.376 17.315 0.313 1.76-2.906 25.071 -0.216 0.637-0.442 1.305-0.69 2.038 -0.74-5.766-1.127-13.335-1.421-16.189 -2.111-0.395-4.519-0.51-6.55-0.51 -9.976 0.257-3.828 0.929-17.36 1.256 -13.532-0.327-7.385-0.999-17.361-1.256 -2.031 0-4.438 0.115-6.55 0.51 -0.294 2.854-0.68 10.424-1.42 16.189 -0.249-0.733-0.475-1.401-0.69-2.038 -3.211-23.254-2.532-7.841-2.906-25.071 -0.004 0.305-0.079 2.204-0.795 13.94 -0.158-0.524-0.371-1.225-0.678-2.221 0.521-11.978-1.225-21.786-4.28-33.93 0.416 3.302 4.506 24.554 2.71 39.279 -5.323-17.587-3.395-7.268-6.479-28.02 -0.01-0.021-0.01-0.03-0.01-0.03 0.368 4.41 0.666 7.865 0.902 10.705 -3.483-10.606-7.204-21.757-7.424-22.354 3.596 19.873 2.02 14.401 7.991 29.965 0.214 3.747 0.207 6.479 0.031 10.835 -3.871-9.208-4.105-11.783-7.04-23.021 -0.01-0.01 0-0.02 0-0.02 -2.59-18.417-14.265-36.9-17.79-57.66 -1.545-11.173 0.525-22.972 0.93-26.87 0.573-5.458 1.357-13.917 4.66-17.22 -3.073 2.471-4.402 10.301-5.38 17.19 -1.923 13.605-3.485 20.101-0.21 34.17 5.95 23.563 16.863 36.933 18.92 67.34 -0.457-1.014-4.45-13.016-4.45-13.58 -0.143-0.369-1.468-5.054-1.58-5.44 -3.348-13.728-8.604-20.174-10.37-31.68 0.743 10.461 3.362 12.851 8.96 32.09 3.321 11.648 2.843 7.931 3.07 15.99 -7.993-23.844-10.703-28.901-18.6-55.41 -9.2-29.427-4.457-55.152 8.958-73.864l1.149-5.18C28.488 30.708 21.813 58.32 32.461 90.745c8.949 28.091 13.512 36.882 21.14 58.24 0 0 0.003-4.164-0.1-6.51 3.068 7.797 1.906 5.192 4.189 9.279 0.064-3.704-0.192-7.47-0.55-11.13 2.294 9.156 3.72 11.162 6.37 16.48 0.481-3.005 0.55-5.61 0.55-8.3 0.006 0.022 5.33 16.002 5.33 16.02 0.26 0.771 0.51 1.5 0.73 2.15 0.284-3.106 0.558-7.202 0.773-11.023 2.884 8.8 2.179 4.808 3.597 15.133 0.15-1.35 0.303-2.573 0.458-3.707 0.02 0.052 0.041 0.105 0.061 0.157 2.231-14.414 2.258-12.435 3.011-18.76 19.125 1.023 24.679 1.032 43.959 0 0.757 6.367 0.762 4.21 3.011 18.76 0.021-0.052 0.041-0.105 0.061-0.158 0.155 1.134 0.308 2.358 0.458 3.708 1.419-10.337 0.714-6.334 3.597-15.133 0.216 3.821 0.489 7.917 0.773 11.023 0.221-0.65 0.471-1.38 0.73-2.15 0-0.018 5.324-15.997 5.33-16.02 0 2.689 0.068 5.295 0.55 8.3 2.65-5.318 4.076-7.324 6.37-16.48 -0.357 3.66-0.614 7.426-0.55 11.13 2.283-4.087 1.121-1.482 4.189-9.279 -0.103 2.346-0.1 6.51-0.1 6.51 7.628-21.358 12.19-30.149 21.14-58.24C178.187 58.32 171.512 30.708 155.731 11.562zM69.491 163.165c-1.323-5.24-2.458-8.576-3.365-11.2 1.074 2.769 1.867 4.804 2.233 5.771 0.499-2.595 0.93-5.54 1.05-6.54 0.171 0.597 0.405 1.37 0.686 2.266C69.925 156.226 69.726 159.425 69.491 163.165zM71.052 153.015c0.061-1.21 0.115-2.355 0.159-3.379 0.122 0.597 0.601 3.492 1.213 7.415C71.652 154.783 71.276 153.685 71.052 153.015zM77.631 148.405c-0.097 0.384-0.678 3.295-1.321 6.632 0.183-2.979 0.253-5.581 0.209-7.292 1.364-0.173 5.699-0.332 12.026 0.629C85.419 148.395 81.815 148.405 77.631 148.405zM122.369 148.405c-4.185 0-7.789-0.011-10.915-0.031 5.565-0.845 10.097-0.874 12.026-0.629 -0.044 1.711 0.026 4.312 0.21 7.29C123.047 151.698 122.466 148.788 122.369 148.405zM127.576 157.051c0.611-3.924 1.091-6.818 1.213-7.415 0.044 1.023 0.098 2.168 0.159 3.379C128.724 153.684 128.348 154.783 127.576 157.051zM130.509 163.165c-0.234-3.74-0.434-6.939-0.604-9.704 0.28-0.896 0.515-1.669 0.686-2.266 0.119 1 0.551 3.945 1.05 6.54 0.366-0.967 1.159-3.004 2.234-5.776C132.968 154.584 131.833 157.921 130.509 163.165z" fill="#d19292" stroke-width="none" opacity="1" stroke="none"/>
          </g>
        </g>
        <g id="svga-group-humanbody-single">
          <path id="SvgjsPath14978" d="M195.417 199.778c-2.196-4.746-8.195-11.779-14.86-13.722 -8.239-2.403-26.837-5.308-33.733-6.923 -5.528-1.296-16.662-11.294-20.564-14.65 -0.7-0.6-1.273-1.839-1.287-2.76 -0.139-10.864 4.195-39.724 4.195-39.724H100 70.833c0 0 4.334 28.859 4.193 39.724 -0.011 0.921-0.587 2.16-1.285 2.76 -3.902 3.356-15.036 13.354-20.564 14.65 -6.897 1.615-25.495 4.619-33.733 7.022 -6.667 1.942-12.664 8.876-14.86 13.622 -3.708 8.008-4.584 22.5-4.584 35h100 100C200 222.278 199.123 207.786 195.417 199.778z" fill="#e19e95" stroke-width="none" opacity="1" stroke="none"/>
          <path id="SvgjsPath14979" d="M159.156 184.058c24.342 3.542 34.586 8.708 37.794 50.721H200c0-12.5-0.877-26.992-4.583-35 -2.196-4.746-8.195-11.779-14.86-13.722 -8.239-2.403-26.837-5.308-33.733-6.923 -5.528-1.296-18.242-12.069-21.643-16.35 3.36 4.704 12.791 15.605 21.054 18.46C150.188 182.61 153.48 183.232 159.156 184.058zM53.766 181.244c8.263-2.854 17.693-13.756 21.054-18.46 -3.4 4.28-16.114 15.054-21.643 16.35 -6.896 1.615-25.494 4.619-33.733 7.022 -6.665 1.942-12.664 8.876-14.86 13.622 -3.706 8.008-4.583 22.5-4.583 35h3.05c3.188-41.744 13.475-47.183 37.794-50.721C46.52 183.232 49.813 182.61 53.766 181.244z" fill="#f0beb7" stroke-width="none" opacity="1" stroke="none"/>
          <path id="SvgjsPath14980" d="M95.646 197.62c0 0-5.074-1.609-7.083-2.379 -10.449-4.009-44.395-6.607-44.395-6.607s35.754 1.419 43.644 2.779c-0.458-4.767-3.017-20.004-3.017-20.004s5.149 16.815 6.409 21.057C91.878 194.734 95.646 197.62 95.646 197.62zM106.445 196.278c-0.089 0.073-0.191 0.168-0.302 0.268C106.256 196.461 106.358 196.372 106.445 196.278zM95.646 197.62c0 0 2.893 2.992 4.347 3.03 1.91 0.051 4.828-2.899 6.151-4.104 -1.265 0.957-4.159 1.391-5.31 1.436C99.504 198.033 95.646 197.62 95.646 197.62zM116.664 190.101c-1.545 0.248-4.386 0.789-4.386 0.789l2.287-14.89c-0.646 3.071-4.474 16.211-8.12 20.278 1.91-1.616 6.158-2.391 8.324-2.704 10.236-1.484 10.232-1.483 41.062-4.94C155.831 188.634 126.76 188.479 116.664 190.101z" fill="#d28176" stroke-width="none" opacity="1" stroke="none"/>
          <path id="SvgjsPath14981" d="M195.417 199.778c-2.196-4.746-8.195-11.779-14.86-13.722 -8.239-2.403-26.837-5.308-33.733-6.923 -5.528-1.296-16.662-11.294-20.564-14.65 -0.7-0.6-1.273-1.839-1.287-2.76 -0.139-10.864 4.195-39.724 4.195-39.724H100 70.833c0 0 4.334 28.859 4.193 39.724 -0.011 0.921-0.587 2.16-1.285 2.76 -3.902 3.356-15.036 13.354-20.564 14.65 -6.897 1.615-25.495 4.619-33.733 7.022 -6.667 1.942-12.664 8.876-14.86 13.622 -3.708 8.008-4.584 22.5-4.584 35h100 100C200 222.278 199.123 207.786 195.417 199.778z" fill="none" stroke="#b34e41" stroke-width="1.5" opacity="1"/>
        </g>
        <g id="svga-group-chinshadow-single">
          <path id="SvgjsPath15269" d="M109.536 170.861c4.446-1.662 9.623-5.664 14.692-10.57 0.134-7.874 1.927-22.141 3.129-30.907 -15.727-1.816-38.988-1.81-54.712 0.013 1.201 8.766 2.992 23.017 3.125 30.887 5.071 4.909 10.251 8.915 14.699 10.578C94.942 172.534 105.063 172.534 109.536 170.861z" fill="url(#SvgjsLinearGradient15270)" opacity="1"/>
        </g>
        <g id="svga-group-clothes-single">
          <path id="SvgjsPath15274" d="M42.77 235.757l1.323-60.852c0 0 10.194-2.487 16.635-6.313 17.496 21.953 69.451 17.333 78.336-0.62 1.489 0.525 2.721 1.197 4.262 1.713 5 3.386 9.213 4.494 9.213 4.494l0.935 61.685C139.188 236.052 42.77 235.757 42.77 235.757z" fill="#f5f4f5" stroke-width="none" opacity="1"/>
          <path id="SvgjsPath15275" d="M154.014 177.705c-4.236-0.719-7.611-1.697-9.452-3.544 -5.343 10.025-26.763 16.378-33.855 17.309 20.554-6.276 29.188-10.813 32.598-21.583 1.99 2.383 6.522 3.549 12.313 4.538L154.014 177.705zM52.67 174.381c1.454-0.312 2.18-1.234 3.623-1.593l-1.528-1.867c-3.114 2.234-8.971 3.305-15.9 4.424l0.188 3.738c3.956-0.79 7.817-1.788 11.429-3.323 7.483 8.485 19.168 12.659 31.06 14.387C66.624 186.562 58.07 180.511 52.67 174.381z" fill="#ffffff" stroke-width="none" opacity="1"/>
          <path id="SvgjsPath15276" d="M137.861 170.055c-5.929 11.361-50.74 24.595-76.009 0.866 -1.571 0.615-6.271 2.085-6.271 2.085 18.406 23.08 72.345 23.227 86.702-0.112C142.221 172.87 139.321 170.737 137.861 170.055z" fill="#dfdde2" stroke-width="none" opacity="1"/>
          <path id="SvgjsPath15277" d="M139.008 167.841c-10.087 18.575-62.578 21.204-78.239 0.625 -5.72 1.556-11.219 4.876-16.756 5.707l-1.243 61.584 110.703 0.107 -0.855-62.386c-3.369-0.707-6.501-2.737-9.254-3.894C141.842 168.945 140.55 168.37 139.008 167.841zM60.39 169.087c13.903 23.086 68.817 18.455 79.419 0.099 1.286 0.499 1.615 0.696 3.106 1.183 -10.982 21.208-65.306 27.967-87.525 1.147C55.546 171.476 58.823 169.629 60.39 169.087zM54.287 172.418c17.963 27.046 77.26 22.856 89.583-1.287 1.771 1.391 4.53 2.989 7.936 3.735l1.66 59.08 -110.377 0.016 1.904-58.299C47.777 174.264 52.247 173.232 54.287 172.418z" fill="#b8b6c9" stroke-width="none" opacity="1"/>
          <path id="SvgjsPath15278" d="M-4.529 235.566c-2.574-13.852-2.292-47.592 9.013-47.521 13.136-5.311 29.269-11.404 42.802-15.311 6.908-7.246 13.436-14.137 26.188-21.314 0.389 2.599 1.874 8.541 0.011 11.773 -1.355 2.352-5.783 5.576-9.554 8.368 -2.029 2.72-3.927 5.374-6.599 9.089 5.168 22.301 9.601 33.78 10.097 53.123 0 0-1.452 0.689 64.471 0.397 2.215-22.339 4.993-33.561 10.379-54.098 0 0-4.308-5.014-7.207-8.87 -2.054-1.997-8.36-7.532-8.84-8.651 -1.175-2.741-0.548-6.188 0.11-11.367 10.793 4.873 17 12.021 26.082 21.303 7.729 2.119 30.86 9.967 42.445 15.216 3.965-0.11 6.203 1.999 7.872 5.466 5.405 11.195 4.126 27.297 2.18 42.789C185.83 235.989 49.887 238.17-4.529 235.566z" fill="#d46fbb" stroke-width="none" opacity="1"/>
          <path id="SvgjsPath15279" d="M73.875 154.081c0.16 1.07 0.304 2.085 0.411 3.041 -0.218 0.266-17.212 23.353-17.336 23.525C61.126 171.148 67.1 161.305 73.875 154.081zM126.053 154.081c-0.159 1.07-0.184 2.085-0.291 3.041 0.218 0.266 16.931 22.469 17.054 22.642C138.391 170.914 132.828 161.305 126.053 154.081zM165.008 185.154c-4.28 6.231-5.194 8.382-9.879 14.557 1.071 0 2.799 0.166 3.87 0.166C162.663 193.592 162.67 190.393 165.008 185.154zM169.394 230.379c3.793-8.9 6.934-16.711 10.739-25.624l-1.247-2.014C175.717 211.896 172.354 221.199 169.394 230.379zM41.048 199.877c1.071 0 2.799-0.166 3.871-0.166 -4.685-6.175-5.599-6.561-9.878-12.792C37.377 192.158 37.384 193.592 41.048 199.877zM21.161 202.741l-1.247 2.014c3.806 8.913 4.765 16.724 8.559 25.624C25.512 221.199 24.33 211.896 21.161 202.741z" fill="#c553a9" stroke-width="none" opacity="1"/>
          <path id="SvgjsPath15280" d="M65.638 169.283c1.181-1.646 5.237-7.272 8.601-12.561C75.227 162.179 73.413 165.416 65.638 169.283zM125.74 156.36c2.553 4.396 5.562 8.772 8.664 12.803C126 165.336 125.435 161.423 125.74 156.36z" fill="#b53b97" stroke-width="none" opacity="1"/>
          <path id="SvgjsPath15281" d="M126.318 151.359c0.008-0.061 0.017-0.118 0.023-0.174 18.093 9.999 28.576 25.02 40.747 36.217 -0.448 0.721-1.228 1.193-1.687 1.905C152.656 179.609 146.599 164.946 126.318 151.359zM71.736 152.022c-15.034 8.213-36.242 33.357-38.318 35.269 0.448 0.724 0.691 0.577 1.15 1.288C47.314 178.882 50.793 169.283 71.736 152.022zM194.869 187.704c-1-0.799-24.646-10.039-42.59-14.969 33.698 16.299 45.587 18.545 51.471 24.321C203.367 196.057 202.586 187.489 194.869 187.704zM47.458 172.555c-13.524 3.914-30.839 10.098-42.975 15.491 -5.364 0.106-9.208 7.93-10.031 16.084C1.914 187.317-1.773 198.62 47.458 172.555z" fill="#e38ece" stroke-width="none" opacity="1"/>
          <path id="SvgjsPath15282" d="M206.6 210.062c-0.34-8.635-3.055-23.103-11.691-22.46 -0.714-0.61-20.822-9.767-42.285-15.611 -7.353-7.455-16.515-17.598-26.371-20.957 -0.711 6.428-1.477 10.622 0.216 12.714 2.241 2.439 4.93 4.879 7.568 6.522 4.616 6.136 8.139 9.778 8.139 9.778 -5.43 20.703-8.815 31.314-10.973 53.688H68.798c-2.157-22.373-5.543-32.984-10.973-53.688 0 0 3.522-3.643 8.139-9.778 2.639-1.644 5.327-4.083 7.568-6.522 1.692-2.092 0.927-6.286 0.216-12.714 -9.856 3.359-19.019 13.502-26.371 20.957 -21.463 5.845-41.571 15.001-42.285 15.611 -8.637-0.643-11.352 13.825-11.691 22.46 -0.411 10.487 1.435 24.938 1.585 25.938h210.029C205.165 234.999 207.011 220.549 206.6 210.062zM72.984 163.194c-2.258 2.233-3.658 3.181-6.473 5.282 4.829-6.271 4.341-5.433 7.708-11.229C74.37 159.739 73.433 162.751 72.984 163.194zM-3.172 234.028c-1.082-12.844-2.916-24.41 0.43-36.992 1.281-4.827 2.484-8.095 7.455-8.509 1.067 5.538 8.132 28.724 14.298 44.533 -6.226-24.192-5.311-18.81-8.219-28.452 -0.964-3.235-1.854-6.486-2.979-9.672 -0.783-2.214-1.65-4.387-2.262-6.653l40.433-14.865c-0.279 0.283-12.895 13.434-13.199 13.804 1.847 3.021 7.816 7.222 10.845 11.758 -12.436 1.174-18.508 3.173-23 3.84 0.331 0.919 9.061 25.353 9.976 27.656 -1.479-7.917-4.816-20.297-8.637-27.211 1.41-0.179 18.077-2.492 23.393-3.477 -1.476-2.854-8.043-8.437-11.559-12.619 20.646-18.162 25.422-27.402 39.593-35.454 0.15 1.509 0.443 3.011 0.55 4.519 -15.795 23.533-17.649 23.567-17.649 23.567 4.585 17.81 10.532 35.824 10.532 54.073L-3.172 234.028zM127.016 163.194c-0.448-0.443-1.386-3.455-1.235-5.947 3.367 5.797 2.879 4.958 7.708 11.229C130.674 166.375 129.273 165.428 127.016 163.194zM203.172 234.028l-70-0.154c0-18.249 5.947-36.264 10.532-54.073 0 0-1.854-0.034-17.649-23.567 0.106-1.508 0.399-3.01 0.55-4.519 14.171 8.052 18.946 17.292 39.593 35.454 -3.516 4.183-10.083 9.766-11.559 12.619 5.315 0.984 21.982 3.298 23.393 3.477 -3.82 6.914-7.157 19.294-8.637 27.211 0.915-2.304 9.645-26.737 9.976-27.656 -4.492-0.667-10.564-2.666-23-3.84 3.028-4.536 8.998-8.736 10.845-11.758 -0.305-0.37-12.92-13.521-13.199-13.804 0.001 0 40.433 14.865 40.433 14.865 -0.611 2.267-1.479 4.439-2.262 6.653 -1.125 3.186-2.015 6.437-2.979 9.672 -2.908 9.643-1.993 4.26-8.219 28.452 6.166-15.81 13.23-38.995 14.298-44.533 4.971 0.414 6.174 3.682 7.455 8.509C206.088 209.618 204.254 221.185 203.172 234.028z" fill="#a62586" stroke-width="none" opacity="1"/>
        </g>
        <g id="svga-group-head" transform="matrix(1,0,0,1,0,0)">
          <g id="svga-group-ears-left-move" transform="matrix(1,0,0,1,0,0)">
            <g id="svga-group-ears-left" transform="matrix(1,0,0,1,0,0)">
              <path id="SvgjsPath15245" d="M47.001 83.231c-1.376-2.453-5.638-8.48-9.98-7.003 -2.749 0.935-3.293 3.993-3.735 6.693 -0.588 3.591 0.471 10.694 1.389 13.26 0.881 2.467 3.533 7.23 5.264 9.045 2.13 2.225 4.775 9.324 5.194 10.061 0.66 1.162 1.536 2.911 4.122 2.692 2.853-0.244 4.584-1.85 5.856-2.121C58.253 115.192 50.582 89.616 47.001 83.231z" fill="#e19e95" stroke="#b34e41" stroke-width="1.5" opacity="1"/>
              <path id="SvgjsPath15246" d="M44.197 98.104c-0.132-0.581 0.007-1.56 0.142-2.504 0.124-0.861 0.24-1.675 0.169-2.251 -0.267-2.154-1.773-6.249-2.757-8.467 -1.132-2.554-2.963-5.77-5.262-6.599 -0.95-0.343-1.575 0.067-1.938 0.484 -0.266 0.305-0.325 0.665-0.238 0.707 0.086 0.042 0.285-0.254 0.572-0.535 0.235-0.229 0.579-0.426 1.051-0.385 -0.19 1.073-1.167 6.883-0.744 10.845 0.333 3.115 1.593 5.442 1.79 5.791 0.029 0.367 0.077 0.726 0.148 1.075 0.929 4.547 4.971 9.717 6.378 11.409 0.259 0.313 0.531 0.497 0.598 0.423 0.066-0.076-0.094-0.387-0.353-0.7 -1.388-1.679-5.391-6.831-6.289-11.218 -0.952-4.656 2.318-11.556 3.048-13.017 0.371 0.685 0.687 1.344 0.93 1.893 0.19 0.431 0.402 0.936 0.619 1.479 -0.429 0.762-3.434 6.32-2.338 10.767 0.406 1.641 2.235 3.755 3.447 4.333 0.667 0.32 0.919 0.797 1.209 1.349 0.336 0.64 0.718 1.365 1.828 1.892 0.225 0.108 0.429 0.151 0.61 0.151 0.313 0 0.551-0.135 0.725-0.293 0.018 0.28 0.017 0.64 0.009 0.97 -0.012 0.431 0.042 0.783 0.137 0.791 0.094 0.008 0.196-0.332 0.207-0.76 0.016-0.526 0.013-1.177-0.072-1.488 -0.248-0.917-1.008-1.953-1.813-3.048C45.221 100.116 44.403 99.003 44.197 98.104zM36.95 94.073c-2.177-7.139 0.656-13.3 1.144-14.28 0.85 0.822 1.6 1.919 2.21 2.995C39.86 83.646 37.041 89.271 36.95 94.073zM46.341 104.515c-1.004-0.475-1.339-1.115-1.666-1.733 -0.293-0.559-0.598-1.136-1.369-1.505 -0.168-0.081-0.352-0.203-0.542-0.343 -2.486-6.263 0.272-9.001 0.963-9.562 0.211 0.766 0.369 1.468 0.439 2.031 0.063 0.517-0.052 1.339-0.167 2.134 -0.142 0.985-0.286 2.004-0.137 2.664 0.226 0.982 1.069 2.131 1.884 3.242 0.723 0.986 1.466 2.003 1.721 2.832C47.359 104.439 47.017 104.836 46.341 104.515z" fill="#b34e41" stroke-width="none" opacity="1" stroke="none"/>
            </g>
          </g>
          <g id="svga-group-ears-right-move" transform="matrix(1,0,0,1,0,0)">
            <g id="svga-group-ears-right" transform="matrix(1,0,0,1,0,0)">
              <path id="SvgjsPath15247" d="M152.736 83.231c1.377-2.453 5.639-8.48 9.98-7.003 2.75 0.935 3.293 3.993 3.736 6.693 0.588 3.591-0.471 10.694-1.389 13.26 -0.881 2.467-3.533 7.23-5.266 9.045 -2.129 2.225-4.775 9.324-5.193 10.061 -0.658 1.162-1.535 2.911-4.121 2.692 -2.854-0.244-4.584-1.85-5.857-2.121C141.484 115.192 149.156 89.616 152.736 83.231z" fill="#e19e95" stroke="#b34e41" stroke-width="1.5" opacity="1"/>
              <path id="SvgjsPath15248" d="M153.727 101.196c-0.805 1.096-1.564 2.131-1.813 3.048 -0.086 0.311-0.088 0.962-0.072 1.488 0.012 0.428 0.113 0.768 0.207 0.76s0.148-0.36 0.137-0.791c-0.008-0.331-0.008-0.69 0.01-0.97 0.174 0.158 0.412 0.293 0.725 0.293 0.182 0 0.385-0.043 0.609-0.151 1.109-0.526 1.492-1.252 1.828-1.892 0.289-0.552 0.543-1.028 1.209-1.349 1.213-0.578 3.041-2.692 3.447-4.333 1.096-4.447-1.908-10.005-2.338-10.767 0.217-0.544 0.43-1.049 0.619-1.479 0.244-0.549 0.559-1.208 0.93-1.893 0.73 1.46 4 8.361 3.049 13.017 -0.896 4.387-4.9 9.539-6.289 11.218 -0.258 0.313-0.418 0.624-0.352 0.7 0.066 0.074 0.338-0.109 0.598-0.423 1.406-1.692 5.449-6.862 6.379-11.409 0.07-0.35 0.117-0.708 0.146-1.075 0.197-0.349 1.459-2.676 1.791-5.791 0.422-3.961-0.555-9.772-0.744-10.845 0.473-0.042 0.814 0.156 1.051 0.385 0.287 0.281 0.486 0.577 0.572 0.535 0.086-0.042 0.027-0.402-0.238-0.707 -0.363-0.417-0.988-0.827-1.938-0.484 -2.299 0.83-4.131 4.045-5.262 6.599 -0.984 2.218-2.49 6.313-2.758 8.467 -0.072 0.576 0.045 1.39 0.17 2.251 0.135 0.945 0.273 1.924 0.141 2.504C155.336 99.003 154.518 100.116 153.727 101.196zM159.434 82.787c0.611-1.075 1.361-2.173 2.211-2.995 0.488 0.98 3.32 7.141 1.145 14.28C162.697 89.271 159.879 83.646 159.434 82.787zM152.27 104.275c0.254-0.829 0.998-1.846 1.721-2.832 0.816-1.111 1.658-2.26 1.885-3.242 0.148-0.66 0.004-1.679-0.137-2.664 -0.115-0.795-0.23-1.617-0.166-2.134 0.068-0.563 0.227-1.266 0.438-2.031 0.691 0.561 3.449 3.299 0.965 9.562 -0.191 0.14-0.375 0.263-0.543 0.343 -0.771 0.369-1.074 0.946-1.369 1.505 -0.326 0.618-0.662 1.258-1.666 1.733C152.721 104.836 152.379 104.439 152.27 104.275z" fill="#b34e41" stroke-width="none" opacity="1" stroke="none"/>
            </g>
          </g>
          <g id="svga-group-faceshape-wrap" transform="matrix(1,0,0,1,0,0)">
            <g id="svga-group-faceshape-single">
              <path id="SvgjsPath15266" d="M144.004 126.306c-6.87 10.846-23.072 30.329-34.468 34.563 -4.474 1.663-14.594 1.663-19.067 0 -11.396-4.235-27.596-23.719-34.467-34.563 -6.753-10.657-14.852-48.287-14.863-48.341 -1.3-4.961-1.996-10.168-2.004-15.538C39.082 28.614 66.289 1.169 99.907 1.116c33.621-0.053 60.913 27.306 60.963 61.119 0.009 5.37-0.669 10.579-1.952 15.544C158.901 77.832 150.78 115.606 144.004 126.306z" fill="#e19e95" stroke-width="none" opacity="1" stroke="none"/>
              <path id="SvgjsPath15267" d="M110.152 1.978c26.994 6.303 47.097 30.644 47.052 59.708 -0.009 5.369-0.704 10.577-2.004 15.537 -0.012 0.054-7.377 37.684-14.13 48.341 -6.872 10.844-22.339 29.588-33.734 33.823 -1.476 0.549-5.027 1.103-7.334 1.103 -2.307 0-5.857-0.554-7.333-1.103 -11.396-4.235-26.863-22.979-33.734-33.823 -6.753-10.657-14.119-48.287-14.13-48.341 -1.3-4.96-1.996-10.168-2.004-15.537C42.756 32.622 62.857 8.281 89.853 1.978 61.03 6.845 39.087 32.061 39.134 62.427c0.008 5.369 0.704 10.576 2.004 15.538 0.012 0.054 8.11 37.684 14.863 48.341 6.871 10.845 23.072 30.328 34.467 34.563 2.239 0.833 5.889 1.247 9.537 1.244 3.646 0.001 7.292-0.411 9.53-1.244 11.396-4.235 27.596-23.719 34.468-34.563 6.753-10.657 14.852-48.287 14.862-48.341 1.3-4.961 1.996-10.168 2.004-15.538C160.918 32.061 138.975 6.845 110.152 1.978z" fill="#d98f85" stroke-width="none" opacity="1" stroke="none"/>
              <path id="SvgjsPath15268" d="M144.004 126.306c-6.87 10.846-23.072 30.329-34.468 34.563 -4.474 1.663-14.594 1.663-19.067 0 -11.396-4.235-27.596-23.719-34.467-34.563 -6.753-10.657-14.852-48.287-14.863-48.341 -1.3-4.961-1.996-10.168-2.004-15.538C39.082 28.614 66.289 1.169 99.907 1.116c33.621-0.053 60.913 27.306 60.963 61.119 0.009 5.37-0.669 10.579-1.952 15.544C158.901 77.832 150.78 115.606 144.004 126.306z" fill="none" stroke="#b34e41" stroke-width="1.5" opacity="1"/>
            </g>
          </g>
          <g id="svga-group-mouth-single-move" transform="matrix(1,0,0,1,0,0)">
            <g id="svga-group-mouth-single" transform="matrix(1,0,0,1,0,0)">
              <path id="SvgjsPath15236" d="M99.983 143.169c-3.24 0-4.753-3.102-4.753-3.102l9.279-0.067C104.509 140 102.832 143.169 99.983 143.169z" fill="url(#SvgjsLinearGradient15237)" opacity="1"/>
              <path id="SvgjsPath15240" d="M99.869 130.999c-8.472 0-12.247 2.608-15.517 6h31.035C112.672 133.527 108.709 130.999 99.869 130.999z" fill="#ffffff" stroke-width="none" opacity="1"/>
              <path id="SvgjsPath15241" d="M99.869 130.999c-8.472 0-12.247 2.608-15.517 6h31.035C112.672 133.527 108.709 130.999 99.869 130.999z" fill="none" stroke="#b34e41" stroke-width="0.75" opacity="1"/>
            </g>
          </g>
          <g id="svga-group-eyes-left-move" transform="matrix(1,0,0,1,0,0)">
            <g id="svga-group-eyes-left" transform="matrix(1,0,0,1,0,0)">
              <g id="svga-group-eyesback-left">
                <path id="SvgjsPath15295" d="M76.732 78.383c4.587 0.679 7.931 3.488 10.773 7.94 0.004 0.005 0.013 0.004 0.018 0.008 0.007 0.027 0.021 0.053 0.026 0.08 0.255 1.007-0.816 1.819-2.155 2.438 -4.771 0.609-9.359 1.489-14.194 0.87 -9.681-1.241-9.855-5.509-10.326-6.629 -0.252-1.101-0.325-1.417-0.311-2.473 2.332-1.366 4.043-1.647 5.854-2.005C68.541 78.194 73.268 77.868 76.732 78.383z" fill="url(#SvgjsRadialGradient15296)" opacity="1"/>
              </g>
              <g id="svga-group-eyesiriswrapper-left" transform="matrix(1,0,0,1,0.25,0)">
                <g id="svga-group-eyesiriscontrol-left" transform="matrix(1,0,0,1,0,0)">
                  <g id="svga-group-eyesiris-left" transform="matrix(1,0,0,1,0,0)">
                    <path id="SvgjsPath15353" d="M79.788 85.588c-0.869 3.192-4.162 5.073-7.361 4.196 -3.197-0.876-5.084-4.178-4.214-7.371 0.869-3.195 4.168-5.076 7.365-4.198C78.772 79.09 80.659 82.392 79.788 85.588z" fill="#3c8d8e" stroke="#0c5f60" stroke-width="0.5" opacity="1"/>
                    <path id="SvgjsPath15354" d="M79.643 84.371c-0.441 3.545-3.072 5.392-5.952 5.199 -2.658-0.179-5.034-2.14-5.254-5.525 0.919-0.264 2.14 0.165 3.211 0.001 -0.003 0.039-0.017 0.074-0.018 0.113 -0.084 1.3 0.958 2.433 2.329 2.525 1.374 0.092 2.556-0.892 2.641-2.191 0.009-0.169-0.001-0.336-0.027-0.496C77.527 84.141 78.693 83.999 79.643 84.371z" fill="#529c9d" stroke-width="none" opacity="1" stroke="none"/>
                    <path id="SvgjsPath15355" d="M74.867 81.998c-1.319-0.377-2.667 0.376-3.007 1.691 -0.341 1.308 0.453 2.678 1.771 3.056 1.322 0.379 2.669-0.375 3.011-1.684C76.986 83.745 76.188 82.376 74.867 81.998z" fill="#000000" stroke-width="none" opacity="0.9"/>
                    <path id="SvgjsPath15356" d="M74.867 81.998c-1.319-0.377-2.667 0.376-3.007 1.691 -0.341 1.308 0.453 2.678 1.771 3.056 1.322 0.379 2.669-0.375 3.011-1.684C76.986 83.745 76.188 82.376 74.867 81.998z" fill="none" stroke="#0c5f60" stroke-width="0.75" opacity="1"/>
                    <path id="SvgjsPath15357" d="M71.16 87.657c-0.125 0.437-0.806 0.251-0.681-0.188 0.121-0.423 0.446-0.683 0.653-1.055 0.221-0.398 0.831-0.042 0.609 0.356C71.571 87.078 71.257 87.314 71.16 87.657L71.16 87.657zM72.246 86.96c-0.188 0.219-0.434 1.03-0.54 1.295 -0.17 0.422 0.513 0.604 0.681 0.188 0.058-0.145 0.256-0.863 0.359-0.983C73.04 87.116 72.543 86.614 72.246 86.96L72.246 86.96zM73.716 89.048c0.369-0.425 0.332-0.912 0.324-1.441 -0.007-0.455-0.713-0.455-0.706 0 0.004 0.293 0.092 0.701-0.117 0.942C72.92 88.891 73.417 89.392 73.716 89.048L73.716 89.048zM74.437 87.519c0.005 0.438 0.06 0.865 0.189 1.285 0.134 0.434 0.815 0.249 0.681-0.188 -0.112-0.362-0.159-0.719-0.164-1.097C75.138 87.064 74.432 87.063 74.437 87.519L74.437 87.519z" fill="#ffffff" stroke-width="none" opacity="0.5"/>
                    <path id="SvgjsPath15358" d="M78.197 82.971c-0.695 0.417-1.74 0.042-2.333-0.839 -0.592-0.881-0.503-1.934 0.193-2.349 0.694-0.419 1.742-0.043 2.33 0.838C78.979 81.502 78.893 82.554 78.197 82.971z" fill="#ffffff" stroke-width="none" opacity="0.8"/>
                  </g>
                </g>
              </g>
              <g id="svga-group-eyesfront-left">
                <path id="SvgjsPath15320" d="M55.112 83.583c3.224 11.315 7.475 23.313 17.685 23.669s22.135-7.239 22.29-22.238c0.173-16.767-10.474-23.381-20.684-23.737S50.307 66.714 55.112 83.583zM60.875 83.09c-0.252-1.101-0.325-1.417-0.311-2.473 2.027-1.21 4.04-1.547 5.851-1.905 2.123-0.418 6.853-0.845 10.317-0.329 4.587 0.679 7.931 3.488 10.773 7.94 0.004 0.005 0.013 0.004 0.018 0.008 0.007 0.027 0.021 0.053 0.026 0.08 0.255 1.007-0.816 1.819-2.155 2.438 -4.771 0.609-9.359 1.489-14.194 0.87C61.519 88.478 61.345 84.21 60.875 83.09z" fill="#e19e95" stroke-width="none" opacity="1" stroke="none"/>
                <path id="SvgjsPath15321" d="M74.225 95.171c9.256 1.401 17.847-3.01 19.186-9.859 1.34-6.849-5.072-13.537-14.329-14.94 -9.258-1.399-17.845 3.012-19.185 9.862C58.557 87.082 64.967 93.766 74.225 95.171zM60.563 80.617c2.125-1.141 4.04-1.547 5.851-1.905 2.123-0.418 6.853-0.845 10.317-0.329 4.587 0.679 7.931 3.488 10.773 7.94 0.004 0.005 0.013 0.004 0.018 0.008 0.007 0.027 0.021 0.053 0.026 0.08 0.255 1.007-0.816 1.819-2.155 2.438 -4.771 0.609-9.359 1.489-14.194 0.87 -9.681-1.241-9.855-5.509-10.326-6.629C60.622 81.989 60.55 81.672 60.563 80.617z" fill="url(#SvgjsRadialGradient15322)" opacity="1"/>
                <path id="SvgjsPath15326" d="M60.875 83.09c-0.252-1.101-0.325-1.417-0.311-2.473 2.092-1.175 4.04-1.547 5.851-1.905 2.123-0.418 6.853-0.845 10.317-0.329 4.587 0.679 7.931 3.488 10.773 7.94 0.004 0.005 0.013 0.004 0.018 0.008 0.007 0.027 0.021 0.053 0.026 0.08 0.255 1.007-0.816 1.819-2.155 2.438 -4.771 0.609-9.359 1.489-14.194 0.87C61.519 88.478 61.345 84.21 60.875 83.09z" fill="url(#SvgjsRadialGradient15327)" opacity="1"/>
                <path id="SvgjsPath15330" d="M76.327 75.748c3.294 0.539 6.505 2.054 9.48 3.945 0.637 0.404 1.366 0.865 2.521 1.451 -0.828-0.188-1.594-0.617-2.309-1.011 0.736 0.698 1.422 1.529 1.982 2.334 -2.521-3.159-7.297-5.538-11.36-6.349 -3.902-0.779-10.989-0.264-16.251 2.042C65.208 75.449 72.237 75.08 76.327 75.748z" fill="#b34e41" stroke-width="none" opacity="1" stroke="none"/>
                <path id="SvgjsPath15331" d="M87.508 86.277c-2.847-4.34-6.193-7.082-10.781-7.747 -4.833-0.705-11.271-0.221-15.034 1.843 -0.308 0.169-1.607 1.249-1.401 0.117 0.874-1.167 4.322-2.523 5.993-2.928C85.03 73.019 88.582 87.854 87.508 86.277zM60.646 82.841c-0.716 2.063 0.861 6.654 10.145 7.503 6.595 0.602 15.767-1.75 14.634-1.613 -4.779 0.589-9.375 1.449-14.219 0.839C60.224 88.19 61.468 83.023 60.646 82.841z" fill="#000000" stroke-width="none" opacity="1" stroke="none"/>
              </g>
            </g>
          </g>
          <g id="svga-group-eyes-right-move" transform="matrix(1,0,0,1,0,0)">
            <g id="svga-group-eyes-right" transform="matrix(1,0,0,1,0,0)">
              <g id="svga-group-eyesback-right">
                <path id="SvgjsPath15303" d="M122.867 78.383c-4.586 0.679-7.931 3.488-10.773 7.94 -0.004 0.005-0.012 0.004-0.018 0.008 -0.006 0.027-0.02 0.053-0.025 0.08 -0.256 1.007 0.815 1.819 2.154 2.438 4.771 0.609 9.359 1.489 14.194 0.87 9.681-1.241 9.855-5.509 10.325-6.629 0.253-1.101 0.325-1.417 0.312-2.473 -2.331-1.366-4.043-1.647-5.854-2.005C131.059 78.194 126.332 77.868 122.867 78.383z" fill="url(#SvgjsRadialGradient15304)" opacity="1"/>
              </g>
              <g id="svga-group-eyesiriswrapper-right" transform="matrix(1,0,0,1,-0.25,0)">
                <g id="svga-group-eyesiriscontrol-right" transform="matrix(1,0,0,1,0,0)">
                  <g id="svga-group-eyesiris-right" transform="matrix(1,0,0,1,0,0)">
                    <path id="SvgjsPath15359" d="M131.788 85.588c-0.869 3.192-4.162 5.073-7.362 4.196 -3.196-0.876-5.084-4.178-4.214-7.371 0.869-3.195 4.169-5.076 7.365-4.198C130.772 79.09 132.658 82.392 131.788 85.588z" fill="#3c8d8e" stroke="#0c5f60" stroke-width="0.5" opacity="1"/>
                    <path id="SvgjsPath15360" d="M131.643 84.371c-0.44 3.545-3.072 5.392-5.951 5.199 -2.657-0.179-5.034-2.14-5.255-5.525 0.919-0.264 2.141 0.165 3.212 0.001 -0.004 0.039-0.017 0.074-0.019 0.113 -0.085 1.3 0.958 2.433 2.329 2.525 1.374 0.092 2.555-0.892 2.64-2.191 0.009-0.169-0.001-0.336-0.026-0.496C129.527 84.141 130.693 83.999 131.643 84.371z" fill="#529c9d" stroke-width="none" opacity="1" stroke="none"/>
                    <path id="SvgjsPath15361" d="M126.867 81.998c-1.319-0.377-2.666 0.376-3.007 1.691 -0.341 1.308 0.453 2.678 1.771 3.056 1.322 0.379 2.669-0.375 3.011-1.684C128.986 83.745 128.188 82.376 126.867 81.998z" fill="#000000" stroke-width="none" opacity="0.9"/>
                    <path id="SvgjsPath15362" d="M126.867 81.998c-1.319-0.377-2.666 0.376-3.007 1.691 -0.341 1.308 0.453 2.678 1.771 3.056 1.322 0.379 2.669-0.375 3.011-1.684C128.986 83.745 128.188 82.376 126.867 81.998z" fill="none" stroke="#0c5f60" stroke-width="0.75" opacity="1"/>
                    <path id="SvgjsPath15363" d="M123.16 87.657c-0.125 0.437-0.806 0.251-0.682-0.188 0.121-0.423 0.447-0.683 0.654-1.055 0.22-0.398 0.83-0.042 0.609 0.356C123.571 87.078 123.257 87.314 123.16 87.657L123.16 87.657zM124.246 86.96c-0.188 0.219-0.434 1.03-0.54 1.295 -0.171 0.422 0.513 0.604 0.681 0.188 0.059-0.145 0.256-0.863 0.358-0.983C125.04 87.116 124.543 86.614 124.246 86.96L124.246 86.96zM125.716 89.048c0.369-0.425 0.332-0.912 0.324-1.441 -0.007-0.455-0.713-0.455-0.706 0 0.004 0.293 0.092 0.701-0.117 0.942C124.92 88.891 125.418 89.392 125.716 89.048L125.716 89.048zM126.438 87.519c0.005 0.438 0.059 0.865 0.188 1.285 0.135 0.434 0.815 0.249 0.681-0.188 -0.112-0.362-0.159-0.719-0.164-1.097C127.138 87.064 126.432 87.063 126.438 87.519L126.438 87.519z" fill="#ffffff" stroke-width="none" opacity="0.5"/>
                    <path id="SvgjsPath15364" d="M130.197 82.971c-0.695 0.417-1.74 0.042-2.333-0.839 -0.592-0.881-0.504-1.934 0.192-2.349 0.695-0.419 1.742-0.043 2.33 0.838C130.979 81.502 130.893 82.554 130.197 82.971z" fill="#ffffff" stroke-width="none" opacity="0.8"/>
                  </g>
                </g>
              </g>
              <g id="svga-group-eyesfront-right">
                <path id="SvgjsPath15341" d="M125.197 61.277c-10.211 0.356-20.857 6.97-20.685 23.737 0.154 15 12.079 22.595 22.29 22.238 10.21-0.356 16.187-17.323 17.685-23.669C148.517 66.512 135.407 60.921 125.197 61.277zM128.399 89.719c-4.835 0.619-9.423-0.261-14.194-0.87 -1.339-0.618-2.41-1.43-2.154-2.438 0.006-0.027 0.02-0.053 0.025-0.08 0.006-0.004 0.014-0.003 0.018-0.008 2.843-4.452 6.188-7.261 10.773-7.94 3.465-0.516 8.195-0.089 10.318 0.329 1.811 0.357 3.824 0.694 5.851 1.905 0.014 1.055-0.059 1.372-0.312 2.473C138.255 84.21 138.08 88.478 128.399 89.719z" fill="#e19e95" stroke-width="none" opacity="1" stroke="none"/>
                <path id="SvgjsPath15342" d="M139.703 80.234c-1.34-6.85-9.928-11.261-19.186-9.862 -9.257 1.403-15.669 8.091-14.328 14.94 1.339 6.849 9.93 11.26 19.186 9.859C134.633 93.766 141.043 87.082 139.703 80.234zM138.725 83.09c-0.47 1.121-0.645 5.388-10.325 6.629 -4.835 0.619-9.423-0.261-14.194-0.87 -1.339-0.618-2.41-1.43-2.154-2.438 0.006-0.027 0.02-0.053 0.025-0.08 0.006-0.004 0.014-0.003 0.018-0.008 2.843-4.452 6.188-7.261 10.773-7.94 3.465-0.516 8.195-0.089 10.318 0.329 1.811 0.357 3.727 0.764 5.851 1.905C139.05 81.672 138.978 81.989 138.725 83.09z" fill="url(#SvgjsRadialGradient15343)" opacity="1"/>
                <path id="SvgjsPath15347" d="M138.725 83.09c0.253-1.101 0.325-1.417 0.312-2.473 -2.092-1.175-4.04-1.547-5.851-1.905 -2.123-0.418-6.854-0.845-10.318-0.329 -4.586 0.679-7.931 3.488-10.773 7.94 -0.004 0.005-0.012 0.004-0.018 0.008 -0.006 0.027-0.02 0.053-0.025 0.08 -0.256 1.007 0.815 1.819 2.154 2.438 4.771 0.609 9.359 1.489 14.194 0.87C138.08 88.478 138.255 84.21 138.725 83.09z" fill="url(#SvgjsRadialGradient15348)" opacity="1"/>
                <path id="SvgjsPath15351" d="M123.273 75.748c-3.295 0.539-6.506 2.054-9.48 3.945 -0.637 0.404-1.367 0.865-2.521 1.451 0.828-0.188 1.594-0.617 2.309-1.011 -0.736 0.698-1.422 1.529-1.982 2.334 2.521-3.159 7.297-5.538 11.359-6.349 3.902-0.779 10.989-0.264 16.252 2.042C134.391 75.449 127.362 75.08 123.273 75.748z" fill="#b34e41" stroke-width="none" opacity="1" stroke="none"/>
                <path id="SvgjsPath15352" d="M133.314 77.563c1.672 0.405 5.119 1.761 5.994 2.928 0.205 1.132-1.094 0.052-1.402-0.117 -3.764-2.064-10.201-2.548-15.033-1.843 -4.588 0.665-7.936 3.407-10.781 7.747C111.018 87.854 114.57 73.019 133.314 77.563zM128.395 89.57c-4.844 0.61-9.439-0.25-14.219-0.839 -1.134-0.137 8.038 2.215 14.633 1.613 9.284-0.849 10.861-5.44 10.145-7.503C138.131 83.023 139.376 88.19 128.395 89.57z" fill="#000000" stroke-width="none" opacity="1" stroke="none"/>
              </g>
            </g>
          </g>
          <g id="svga-group-facehighlight-single">
            <path id="SvgjsPath14970" d="M141 113.974c0.035 22.622-18.292 40.994-40.938 41.025 -22.642 0.037-41.028-18.273-41.063-40.9 -0.035-22.62 18.292-41.064 40.937-41.1C122.579 72.964 140.967 91.349 141 113.974z" fill="url(#SvgjsRadialGradient14971)" opacity="1"/>
            <path id="SvgjsPath14974" d="M137.5 53.999c0 20.711-16.789 37.5-37.499 37.5 -20.711 0-37.501-16.789-37.501-37.5s16.79-37.5 37.501-37.5C120.711 16.499 137.5 33.288 137.5 53.999z" fill="url(#SvgjsRadialGradient14975)" opacity="1"/>
          </g>
          <g id="svga-group-eyebrows-left-move" transform="matrix(1,0,0,1,0,0)">
            <g id="svga-group-eyebrows-left-rotate" transform="matrix(1,0,0,1,0,0)">
              <g id="svga-group-eyebrows-left" transform="matrix(1,0,0,1,0,0)">
                <path id="SvgjsPath15234" d="M90.857 74.446c-12.948-4.229-18.875-4.225-33.252-2.519 -0.434 0.051-2.459 0.548-2.637 0.221 11.896-2.694 21.942-3.566 33.164 0.925C88.531 73.233 90.911 74.118 90.857 74.446z" fill="#2a232b" stroke-width="none" opacity="1" stroke="none"/>
              </g>
            </g>
          </g>
          <g id="svga-group-eyebrows-right-move" transform="matrix(1,0,0,1,0,0)">
            <g id="svga-group-eyebrows-right-rotate" transform="matrix(1,0,0,1,0,0)">
              <g id="svga-group-eyebrows-right" transform="matrix(1,0,0,1,0,0)">
                <path id="SvgjsPath15235" d="M108.978 74.414c9.882-6.264 21.947-6.458 33.14-3.238 0.444 0.128 2.899 0.624 2.915 1.026C120.586 66.812 108.978 74.414 108.978 74.414z" fill="#2a232b" stroke-width="none" opacity="1" stroke="none"/>
              </g>
            </g>
          </g>
          <g id="svga-group-nose-single-move" transform="matrix(1,0,0,1,0,0)">
            <g id="svga-group-nose-single" transform="matrix(1,0,0,1,0,0)">
              <path id="SvgjsPath15242" d="M96.831 88.524c0 0-1.399 11.117-2.026 13.281 -1.379 4.752-6.168 11.417-5.239 14.429 1.859 6.022 7.537 4.493 10.524 4.471 2.763-0.022 8.072 1.552 9.162-2.37 0.352-1.266-0.441-4.466-0.441-4.466s-2.644 3.112-8.875 2.767c-1.778-0.099-4.671-2.096-4.704-4.912 -0.043-3.817 1.802-7.035 2.205-10.824C97.741 98.022 96.831 88.524 96.831 88.524z" fill="#d28176" stroke-width="none" opacity="1" stroke="none"/>
              <path id="SvgjsPath15243" d="M105.194 118.969c1.075 0 1.366 0.326 1.366 0.729 0 0.404-0.335 1.026-1.366 0.73 -1.134-0.323-3.113-0.175-3.113-0.175S104.117 118.969 105.194 118.969zM94.922 118.969c-1.077 0.001-1.366 0.328-1.366 0.733 -0.001 0.403 0.323 0.983 1.366 0.729 1.15-0.282 3.112-0.175 3.112-0.175S95.999 118.973 94.922 118.969zM108.81 113.869c0 0 1.489 1.933 1.18 3.975 -0.301 1.983-3.31 2.861-3.31 2.861s2.089-1.516 2.342-3.356C109.14 116.486 108.81 113.869 108.81 113.869zM90.427 111.883c0 0-1.086 2.704-0.772 4.352 0.571 2.976 3.704 4.164 3.704 4.164s-1.955-2.039-2.65-3.842C89.948 114.587 90.427 111.883 90.427 111.883z" fill="#b34e41" stroke-width="none" opacity="1" stroke="none"/>
              <path id="SvgjsPath15244" d="M105.141 115.311c1.043-0.889 1.148-1.396 0.932-1.729 -0.215-0.334-0.841-0.545-1.714 0.528 -0.963 1.18-3.056 2.054-3.056 2.054S104.098 116.198 105.141 115.311z" fill="#f0beb7" stroke-width="none" opacity="1" stroke="none"/>
            </g>
          </g>
          <g id="svga-group-beardwrap" transform="matrix(1,0,0,1,0,0)">
            <g id="svga-group-beard-single-move" transform="matrix(1,0,0,1,0,0)">
              <g id="svga-group-beard-single" transform="matrix(1,0,0,1,0,0)">
                <path id="SvgjsPath14988" d="M100,18.13L100,18.13L100,18.13L100,18.13z" fill="#2a232b" stroke-width="none" opacity="1"/>
              </g>
            </g>
          </g>
          <g id="svga-group-mustache-single-move" transform="matrix(1,0,0,1,0,0)">
            <g id="svga-group-mustache-single" transform="matrix(1,0,0,1,0,0)">
              <path id="SvgjsPath15292" d="M119.74 133.21c-13.47 0-17.96-3.72-19.72-4.18 -1.62 0.36-6.35 4.73-21.51 4.11 -0.45-0.02-1.06-0.04-1.43-0.12 -3.19-2.37-3-6.36 3.14-7.91 5.72-1.15 11.97-5.01 19.95-5.01 6.74 0 10.37 2.45 19.62 5.03 2.47 0.68 4.8 1.33 5.19 4.67 -0.14 1.27-0.84 2.35-2.14 3.26C122.26 133.15 121.11 133.21 119.74 133.21L119.74 133.21z" fill="#ffffff" stroke-width="none" opacity="1" stroke="none"/>
              <path id="SvgjsPath15293" d="M95.87 127.4c1.2-1.24 2.17-3.14 3-4C98.01 124.7 97.55 126.24 95.87 127.4zM96.04 123.24c-2.23 3.02-2.41 3.13-5.17 6.17C93.77 127.2 94.58 125.92 96.04 123.24zM92.04 124.9c-3.69 2.96-3.23 2.22-6.33 4.83C89.83 127.39 90.67 126.39 92.04 124.9zM87.7 125.9c-4.01 2.49-1.09 0.78-7.33 5.17C83.02 129.87 82.89 130.04 87.7 125.9zM83.04 127.4c-1.97 0.88-3.9 1.9-5.67 3.17C79.36 129.73 81.24 128.63 83.04 127.4zM101.13 123.4c0.89 1.35 1.36 2.87 3 4C102.88 126.12 102.08 124.38 101.13 123.4zM103.96 123.24c1.75 3.24 2.61 4.23 5.17 6.17C106.36 126.36 106.19 126.25 103.96 123.24zM107.96 124.9c1.03 1.13 1.74 2.24 6.33 4.83C112.22 127.99 110.79 127.17 107.96 124.9zM112.3 125.9c4.51 3.88 4.58 3.92 7.33 5.17C115.76 128.35 115.09 127.64 112.3 125.9zM116.96 127.4c1.73 1.19 3.65 2.32 5.67 3.17C120.84 129.29 118.9 128.26 116.96 127.4z" fill="#f0d8d8" stroke-width="none" opacity="1" stroke="none"/>
              <path id="SvgjsPath15294" d="M119.41 124.92c-9.65-2.3-15.75-7.96-30.02-2.83 -1.96 0.66-7.64 2.62-9.19 2.93 -0.75 0.19-1.58 0.37-2.43 0.77 -2.68 1.31-4.41 4.61-0.71 7.33 0.42 0.09 1.15 0.11 1.61 0.13 14.96 0.57 19.76-3.71 21.32-4.12 0.67 0.17 0.86 0.31 1.5 0.65 6.34 3.58 18.76 3.81 21.42 3.36 1.22-0.85 2.03-1.92 2.18-3.35C124.67 126.2 122.08 125.67 119.41 124.92zM101.41 128.78c-2.68-1.07-2.49 0.84-10.97 2.27 -6.92 1.03-12.4 1.13-13.4 1.06 -0.69-0.79-1.29-1.77-0.89-2.74 1.39-2.77 0.41-1.39 13.75-5.91 14.77-5.36 10.59-2.05 29.55 3 3.89 1 3.69 1.54 4.41 2.94 0.38 0.96-0.23 1.94-0.91 2.71C120.3 132.27 108.64 131.64 101.41 128.78z" fill="#e0b4b4" stroke-width="none" opacity="1" stroke="none"/>
            </g>
          </g>
          <g id="svga-group-hair-front" transform="matrix(1,0,0,1,0,0)">
            <path id="SvgjsPath15287" d="M81.229 37.267c12.868-1.984 19.271-3.835 26.7-2.011 17.444-4.256 44.396 12.821 44.058 12.472L141.505 9.063 88.143 6.881 81.229 37.267z" fill="#e0b4b4" stroke-width="none" opacity="1" stroke="none"/>
            <path id="SvgjsPath15288" d="M50.214 85.807c2.957 4.436 8.314 11.276 12.339 14.709 -2.166-5.199-11.455-39.957-5.884-58.116 6.415 19.058 17.901 30.843 28.959 35.166C90.152 84 96.677 90.884 102.587 95.204c-3.693-7.418-14.389-22.06-13.441-31.808 6.019 10.762 17.187 23.032 22.754 24.513C94.746 59.06 87.155 30.495 98.25 19.439c3.388 2.466 7.684 11.057 9.76 16.067 3.816-6.809 15.501-21.191 21.898-17.104 3.72 0.333 4.728 10.728 7.586 22.708 4.045 16.953 10.875 32.875-4.194 59.398 11.119-7.509 12.444-18.398 15.07-22.79 4.999 10.392-18.126 49.618-21.001 53.267C141.619 122.75 151.022 102.456 154 95c13.552-33.93 9.558-52.597 1.728-83.436 -7.896-9.581-18.07-17.045-29.498-21.929 -19.196-8.478-46.619-8.019-66.12-0.95 -23.241 8.537-45.426 35.3-44.1 59.82 0.534-2.312 1.689-7.771 3.347-10.7 4.39-7.421 7.084-12.414 19.143-22.311 -4.311 7.94-9.086 17.787-11.97 26.22 -0.379 1.2-0.099-0.002-0.92 3.19 -4.831 19.61-4.502 36.043 4.05 57.6 0-0.617-0.12-5.095-0.21-6.84 -0.829-30.82-3.078-26.765 4.546-46.484 -1.788 11.785-5.229 15.159 3.954 54.514 2.669 11.057 7.916 20.029 9.11 21.63 2.258 3.269 11.117 15.923 14.49 20.58 -0.205-0.998-3.327-14.442-3.46-15.01 0.075 0.201 0.149 0.398 0.224 0.6C54.358 117.327 49.203 101.373 50.214 85.807z" fill="#ffffff" stroke-width="none" opacity="1" stroke="none"/>
            <path id="SvgjsPath15289" d="M155.728 11.564c-1.649-2.001-3.403-3.904-5.241-5.716 11.457 21.016 11.061 63.695 0.934 85.15 7.038-29.279 4.398-51.764-3.538-68.978 1.987 16.464 2.237 31.978-1.69 49.464 -1.172-27.563-6.817-57.424-16.322-59.923 -10.977-2.886-15.539 8.058-20.769 13.673 -0.173-8.436-7.063-13.397-11.004-11.641 -9.891 4.408-8.668 29.141-6.553 40.405 -8.174-20.514-3.401-27.292-2.115-43.828 -13 15-12.089 31.694-7.428 48.829 -11-19-8-43 7-59C67.229 10.592 59.735 34.63 70.185 59.893 58.097 42.439 64.788 21.31 67.229 3.625 52.156 34.975 45.806 45.856 50.778 77c-13.436-30.542 1.965-56.832 9.727-69.149 -6 4-13.519 12.6-17.765 22.646C44.692 23.606 51.123 11.063 59 6c-13.274 4.286-19.292 15.971-22.461 23.692C41.606 7.936 59.577 3.009 66.338-2.241 46.903-0.249 37.683 11.521 30.683 17.521 39.525 3.052 51.008-4.183 69.016-13.938c-3.097 0.738-6.091 1.604-8.907 2.624 -23.241 8.537-45.426 35.3-44.1 59.82 0.534-2.312 1.689-7.771 3.347-10.7 4.39-7.421 7.084-12.414 19.143-22.311 -4.311 7.94-9.086 17.787-11.97 26.22 -0.379 1.2-0.099-0.002-0.92 3.19 -4.831 19.61-4.502 36.043 4.05 57.6 0-0.617-0.12-5.095-0.21-6.84 -0.829-30.82-3.078-26.765 4.546-46.484 -1.788 11.785-5.229 15.159 3.954 54.514 2.669 11.057 7.916 20.029 9.11 21.63 2.258 3.269 11.117 15.923 14.49 20.58 -0.205-0.998-3.327-14.442-3.46-15.01 0.075 0.201 0.149 0.398 0.224 0.6 -3.956-14.168-9.11-30.122-8.1-45.688 2.957 4.436 8.314 11.276 12.339 14.709 -2.166-5.199-11.455-39.957-5.884-58.116 6.415 19.058 17.901 30.843 28.959 35.166C90.152 84 96.677 90.884 102.587 95.204c-3.693-7.418-14.389-22.06-13.441-31.808 6.019 10.762 17.187 23.032 22.754 24.513C94.746 59.06 87.155 30.495 98.25 19.439c3.165 2.303 7.121 9.95 9.321 15.031 0.018-1.067 0.018-1.067 0 0 0.155 0.358 0.303 0.706 0.439 1.036 3.816-6.809 15.501-21.191 21.898-17.104 3.72 0.333 4.728 10.728 7.586 22.708 4.045 16.953 10.875 32.875-4.194 59.398 11.119-7.509 12.444-18.398 15.07-22.79 4.999 10.392-18.126 49.618-21.001 53.267C141.619 122.75 151.022 102.456 154 95 167.552 61.07 163.558 42.403 155.728 11.564z" fill="#f0d8d8" stroke-width="none" opacity="1" stroke="none"/>
            <path id="SvgjsPath15290" d="M54.619 131.235c-4.236-6.189-8.827-15.104-12.867-30.5 0 0-0.333-1.27-0.799-3.182 -4.715-19.148-7.161-35.212-2.584-50.318 -2.627 11.899-1.206 21.003 0.692 32.688C41.148 92.628 46.781 117.201 54.619 131.235zM33.619 36.485c-5.395 14.443-7.984 24.807-7.5 39C26.623 65.374 27.51 57.158 33.619 36.485zM55.619 38.985c-2.777 13.875-4.327 20.931-1.716 33.45 1.867 9.42 3.447 14.162 6.216 23.3C52.657 61.519 52.504 64.386 55.619 38.985zM72.869 41.735c1.788 20.072 12.09 36.972 27.25 50.5C86.549 77.997 75.978 60.925 72.869 41.735zM85.619 47.235c5.267 19.48 9.782 27.643 25.61 39.93C96.521 73.738 92.827 67.68 85.619 47.235zM165.804 32.739c-0.605-1.818-6.422-13.972-13.814-22.025 5.357 6.684 9.14 14.642 12.457 21.823 0.001 0 0.112 0.219 0.249 0.629 4.96 13.976 5.59 33.072 5.089 39.832C171.294 63.328 170.692 46.457 165.804 32.739zM152.88 94.235c-4.602 8.878-6.871 12.852-7.598 14.196 0.001 0-0.066 0.145-0.216 0.378 -7.072 11.362-8.508 11.86-15.897 20.216C140.68 117.921 143.675 115.46 152.88 94.235zM143.299 67.99c0.153 13.452-2.029 20.352-9.018 31.167C141.371 89.838 144.452 82.171 143.299 67.99zM53.368 117.333c0 0-0.196-0.748-0.432-1.883 -3.218-15.218-3.527-22.919-3.817-29.715 -0.429 13.946 0.793 27.354 8.5 50.75C57.619 136.485 55.753 127.676 53.368 117.333zM28.804 16.079c3.802-5.144 5.058-6.782 9.815-11.093 -8.532 6.663-14.775 14.633-19.724 29.688 -0.392 1.132-0.346 1.071-0.776 3.062C20.969 28.461 28.804 15.473 28.804 16.079zM57.429 41.485c4.052 13.7 12.798 26.843 25.671 34C71.097 67.419 62.26 54.079 57.429 41.485zM134.553 14.582c-1.265-1.483-2.858-2.238-4.327-2.826 1 0.481 1.648 0.748 2.607 1.548 1.106 1.053 2.361 2.361 3.324 4.244 5.606 10.221 9.457 41.919 10.297 52.955C146.421 59.6 143.574 24.02 134.553 14.582zM97.769 13.216c4.979 0.069 8.812 0.213 12.009 12.171C107.379 12.334 101.588 13.007 97.769 13.216zM89.335-0.068C80.56 6.535 75.979 18.659 75.792 29.408 76.833 18.938 81.454 6.861 89.335-0.068z" fill="#ffffff" stroke-width="none" opacity="1" stroke="none"/>
            <path id="SvgjsPath15291" d="M155.831 11.662c-7.896-9.582-18.174-17.143-29.602-22.027 -19.196-8.478-46.619-8.019-66.12-0.95 -23.241 8.537-45.426 35.3-44.1 59.82 2.566-11.025 8.714-20.72 22.49-33.01 -4.311 7.94-9.086 17.787-11.97 26.22 -0.379 1.2-0.099-0.002-0.92 3.19 -4.831 19.61-4.502 36.043 4.05 57.6 0-0.617-0.12-5.095-0.21-6.84 -0.829-30.82 0.813-32.675 5.837-51.161 -3.8 12.478-6.519 19.835 2.663 59.19 2.669 11.057 7.916 20.029 9.11 21.63 2.258 3.269 11.117 15.923 14.49 20.58 -0.206-1-11.993-45.903-11.29-58.21 3.365 4.433 9.484 11.38 13.86 14.88 -2.168-6.381-5.93-23.423-6.5-27.07 -0.09-0.65-0.22-1.57-0.38-2.68 -1.189-7.291-1.932-21.021-0.26-29.18 1.481 5.059 4.965 13.05 8.2 17.43 6.745 9.379 9.956 11.43 19.71 16.9 6.016 8.228 11.756 13.338 19.13 18.68 -11.845-20.011-13.297-24.944-14.49-32.12 5.456 11.223 12.598 19.667 23.689 24.61 -8.703-17.044-22.838-44.488-17.459-62.38 0.946-3.081 2.045-5.154 2.57-5.85v-0.02c0.068-0.147 0.06-0.129 0.1-0.2 1.688 1.205 7.787 9.563 9.5 15.56 0.011-0.01 0.011-0.02 0.021-0.03 1.267-2.533 4.484-7.169 7.729-10.56 16.615-16.613 16.758-2.04 18.721 7.41 8.082 32.594 11.446 46.342-3.431 69.58 8.596-3.947 15.656-15.089 17.521-24.45 -3.159 23.102-11.221 34.676-23.69 55.74 2.91-2.089 2.59-1.882 3.59-2.61 32.326-22.212 42.264-80.399 30.242-102.902 8.775 19.989 0.511 75.588-29.771 101.052 19.955-29.485 20.537-43.486 22.56-65.62 1.35-14.309 0.449-18.735-0.479-23.47 0.543 4.677 0.84 7.448-0.261 17.42 -1.973 15.043-4.987 31.514-16.689 41.79 13.733-20.855 10.343-35.993 2.68-65.98 -1.979-7.784-2.434-23.397-15.47-14.3 -5.16 3.425-10.166 10.124-12.99 15.68 -1.562-5.649-4.792-11.777-9.97-17.24 -0.02-0.02-0.05-0.07-0.07-0.06 -1.822 2.912-10.67 11.246-2.61 37.07 3.86 12.465 9.448 22.083 15.67 32.39 -13.746-7.828-28.114-32.458-26.791-51.62 0.313-5.359 1.382-12.417 1.22-17.9 -0.807 13.3-5.346 21.354-0.98 34.6 0 0 1.26 4.12 3.15 8.55 0.561 13.101 6.94 22.296 13.94 33.65 -17.286-15.125-27.847-36.655-30.3-57.9 -0.6-8.81 3.465-23.018 7.2-25.15 -3.907 2.627-8.805 12.239-9.31 23.48 -0.385 10.926 6.498 30.484 14.2 41.27 -9.374-6.058-18.5-12.899-26.13-34.66 1.899-8.935 4.806-14.084 5.6-25.91 -1.883 12.57-4.897 15.589-8.03 28.11 -2.011 7.073-2.438 30.361 6.75 55.33 -5.463-6.071-14.528-19.557-16.93-27.3 -8.496-22.848 3.521-47.839 6.52-51.8 1.659-2.32 4.089-4.836 5.07-7.43 -3.984 6.947-6.792 4.377-14.27 24.56 -3.99 11.964-3.175 25.464 0.46 35.44 1.321 3.516 4.859 9.505 6.88 14.2 -1.688 13.469 5.969 41.852 9.82 54.5 -10.324-16.373-17.78-24.85-22.22-53.02 -3.586-22.754-7.284-36.619 11.98-75.14 -3.442 6.136-5.164 9.043-9.13 17.13l-0.01 0.01c-9.9 20.647-13.651 35.24-12.38 60.03 -6.982-29.604 0.523-49.203 13.14-76.29C42.383 11.562 54.786 3.262 59.629 0c-4.802 2.877-35.973 19.182-42.84 43.215C19.123 22.46 38.134-1.463 60.599-9.475c18.812-6.53 46.021-7.101 64.75 1.18 12.789 5.481 23.954 14.45 31.83 25.437L155.831 11.662z" fill="#d19292" stroke-width="none" opacity="1" stroke="none"/>
          </g>
          <g id="svga-group-glasses-single-move" transform="matrix(1,0,0,1,0,0)">
            <g id="svga-group-glasses-single" transform="matrix(1,0,0,1,0,0)">
              <path id="SvgjsPath15106" d="M100,18.13L100,18.13L100,18.13L100,18.13z" fill="#26120b" stroke-width="none" opacity="1"/>
            </g>
          </g>
        </g>
      </g>
    </g>
    <rect id="SvgjsRect14955" width="200" height="15" x="0" y="185" fill="#ecf0f1" opacity="0.5" style="display: none;"/>
    <text id="SvgjsText14956" font-family="Roboto, Helvetica, Arial, sans-serif" font-size="10px" text-anchor="start" font-weight="400" anchor="start" fill="#333333" x="38.77205276489258" y="182.26323437690735" style="display: none;">
      <tspan id="SvgjsTspan14957" dy="13" x="38.77205276489258">Created on svgAvatars.com</tspan>
    </text>
  </g>
</svg>
